<?xml version="1.0"?><svg width="1003.84" height="913.455" xmlns="http://www.w3.org/2000/svg">
 <title>beautiful swirls underline</title>

 <g>
  <title>Layer 1</title>
  <g opacity="0.8" id="layer1">
   <path d="m644.335022,676.103027c28.292969,54.877991 28.778992,83.008972 22.134949,103.557983c-9.412964,-30.802002 -24.097961,-65.286011 -45.753967,-103.085999l-0.159973,-0.031982c21.002991,40.737976 34.909973,77.383972 43.521973,109.589966c-4.411987,10.612976 -10.325989,19.520996 -14.218018,30.005981c-50.295959,87.792053 -23.703003,139.215027 -9.084961,133.029053c23.513,6.751953 59.681946,-55.38501 26.492004,-166.83606c8.408997,-20.80896 9.652954,-49.491943 -22.852051,-106.228943l-0.079956,0zm20.294983,112.134949c27.124023,103.598999 -0.778992,160.710999 -22.611023,160.239014c0.072998,-0.050964 0.14801,-0.104004 0.220032,-0.156982c-0.096985,0.052002 -0.197021,0.078003 -0.296021,0.125c-1.958984,-0.054016 -3.864014,-0.548035 -5.679993,-1.539001c1.258972,0.940002 2.578979,1.643982 3.945984,2.10498c-14.086975,2.140015 -34.803955,-46.500977 9.726013,-132.872009c3.723999,-9.555969 9.807983,-17.94397 14.695007,-27.901001zm-28.367004,158.66803c-0.140991,-0.106018 -0.281006,-0.203003 -0.421021,-0.315002l-0.159973,0c0.190979,0.117004 0.386963,0.208984 0.580994,0.315002zm5.976013,1.414001c0.101013,-0.054993 0.201965,-0.096985 0.300964,-0.156982l-0.074951,0c-0.074036,0.057983 -0.151001,0.100952 -0.226013,0.156982z" transform="rotate(-89.7081 650.6 812.886)" stroke-width="1px" stroke="#4c4b4b" fill-rule="evenodd" fill="#ff007f" id="path2389"/>
   <path d="m379.309998,1000.950012c-31.497986,-57.220032 -32.039001,-86.554016 -24.641998,-107.981995c10.479004,32.118958 26.826996,68.078003 50.936005,107.492004l0.178986,0.039978c-23.382996,-42.484985 -38.863983,-80.697998 -48.451996,-114.281006c4.912018,-11.067017 11.496002,-20.35498 15.82901,-31.289001c55.993011,-91.546021 26.388,-145.167969 10.113007,-138.71698c-26.176025,-7.041016 -66.442017,57.753967 -29.492004,173.969971c-9.362,21.697998 -10.746002,51.608032 25.440002,110.767029l0.088989,0zm-22.592987,-116.926025c-30.197021,-108.028015 0.865997,-167.583008 25.171997,-167.089966c-0.080994,0.052002 -0.165009,0.106995 -0.246002,0.162964c0.108002,-0.054993 0.220001,-0.080994 0.329987,-0.130981c2.181,0.057007 4.302002,0.572021 6.322998,1.606018c-1.401001,-0.981018 -2.869995,-1.715027 -4.391998,-2.195007c15.683014,-2.231995 38.746002,48.489014 -10.828003,138.552979c-4.145996,9.965027 -10.918976,18.710999 -16.358978,29.093994zm31.578979,-165.451965c0.15802,0.109985 0.313995,0.210999 0.469025,0.326965l0.178986,0c-0.213013,-0.120972 -0.432007,-0.21698 -0.64801,-0.326965zm-6.652985,-1.475037c-0.110992,0.057007 -0.223999,0.101013 -0.334991,0.164001l0.083984,0c0.082001,-0.060974 0.167999,-0.105957 0.251007,-0.164001z" transform="rotate(-89.7081 372.336 858.32)" stroke-width="1px" stroke="#4c4b4b" fill-rule="evenodd" fill="#ff007f" id="path2401"/>
   <path d="m749.911011,614.796997c-32.380005,97.60199 -32.937012,147.634033 -25.332031,184.18103c10.772034,-54.782043 27.578003,-116.114014 52.363037,-183.343018l0.182983,-0.05603c-24.036987,72.455017 -39.953003,137.631042 -49.809021,194.911011c5.050049,18.875 11.817993,34.71698 16.272034,53.36499c57.562012,156.14502 27.127014,247.60498 10.396973,236.594971c-26.908997,12.01001 -68.303955,-98.499939 -30.317993,-296.721924c-9.623962,-37.009033 -11.047974,-88.02301 26.151978,-188.93103l0.092041,0zm-23.226013,199.437012c-31.042969,184.252991 0.890015,285.82605 25.877014,284.985962c-0.083984,-0.089966 -0.169983,-0.179932 -0.252991,-0.280029c0.112,0.100098 0.22699,0.140015 0.338989,0.230103c2.242981,-0.100098 4.421997,-0.980103 6.500977,-2.73999c-1.440979,1.669922 -2.950989,2.919922 -4.515991,3.73999c16.122009,3.809937 39.832031,-82.700073 -11.130981,-236.315063c-4.262024,-16.994995 -11.223999,-31.911987 -16.817017,-49.620972zm32.463989,282.196045c0.161987,-0.190063 0.322021,-0.360107 0.481995,-0.560059l0.184021,0c-0.220032,0.209961 -0.444031,0.369995 -0.666016,0.560059zm-6.839966,2.509888c-0.114014,-0.089966 -0.230042,-0.169922 -0.343994,-0.279907l0.085999,0c0.084961,0.109985 0.172974,0.189941 0.257996,0.279907z" transform="rotate(-89.7081 742.741 858.07)" stroke-width="1px" stroke="#4c4b4b" fill-rule="evenodd" fill="#ff007f" id="path2423"/>
   <path d="m251.570007,1058.109985c32.380005,-97.60498 32.936981,-147.638 25.332001,-184.184998c-10.772003,54.781982 -27.578003,116.114014 -52.363007,183.345032l-0.182999,0.049927c24.037003,-72.449951 39.952988,-137.626953 49.809006,-194.906921c-5.050018,-18.874023 -11.818024,-34.717041 -16.272003,-53.365051c-57.562012,-156.141968 -27.126999,-247.599976 -10.397003,-236.597961c26.908997,-12.009033 68.303986,98.505981 30.317993,296.724976c9.623993,37.009033 11.048004,88.02301 -26.151993,188.934998l-0.091995,0zm23.225983,-199.440979c31.042999,-184.252991 -0.889984,-285.828979 -25.876984,-284.989014c0.084,0.088989 0.169998,0.184021 0.251999,0.278992c-0.111008,-0.093994 -0.225998,-0.140015 -0.338013,-0.222961c-2.242996,0.095947 -4.421997,0.973999 -6.500992,2.737976c1.440994,-1.672974 2.951004,-2.924011 4.516006,-3.744019c-16.123001,-3.805969 -39.832001,82.703003 11.130997,236.317993c4.261993,16.995056 11.223999,31.912048 16.816986,49.621033zm-32.463989,-282.195007c-0.162003,0.187988 -0.322006,0.359985 -0.481995,0.557983l-0.184006,0c0.220001,-0.20697 0.444,-0.369995 0.666,-0.557983zm6.839005,-2.515015c0.11499,0.097046 0.230988,0.171997 0.345001,0.278992l-0.086014,0c-0.084991,-0.104004 -0.172989,-0.179993 -0.258987,-0.278992z" transform="rotate(-89.7081 258.74 814.834)" stroke-width="1px" stroke="#4c4b4b" fill-rule="evenodd" fill="#ff007f" id="path2425"/>
  </g>
 </g>
</svg>